ModelForces
version=1
nRows=4
nColumns=67
inDegrees=no

This file contains the forces exerted on a model during a simulation.

A force is a generalized force, meaning that it can be either a force (N) or a torque (Nm).

Units are S.I. units (second, meters, Newtons, ...)
Angles are in degrees.

endheader
time	hamstrings_r	bifemsh_r	glut_max_r	iliopsoas_r	rect_fem_r	vasti_r	gastroc_r	soleus_r	tib_ant_r	hamstrings_l	bifemsh_l	glut_max_l	iliopsoas_l	rect_fem_l	vasti_l	gastroc_l	soleus_l	tib_ant_l	foot_r.ground.force.X	foot_r.ground.force.Y	foot_r.ground.force.Z	foot_r.ground.torque.X	foot_r.ground.torque.Y	foot_r.ground.torque.Z	foot_r.calcn_r.force.X	foot_r.calcn_r.force.Y	foot_r.calcn_r.force.Z	foot_r.calcn_r.torque.X	foot_r.calcn_r.torque.Y	foot_r.calcn_r.torque.Z	foot_r.toes_r.force.X	foot_r.toes_r.force.Y	foot_r.toes_r.force.Z	foot_r.toes_r.torque.X	foot_r.toes_r.torque.Y	foot_r.toes_r.torque.Z	foot_l.ground.force.X	foot_l.ground.force.Y	foot_l.ground.force.Z	foot_l.ground.torque.X	foot_l.ground.torque.Y	foot_l.ground.torque.Z	foot_l.calcn_l.force.X	foot_l.calcn_l.force.Y	foot_l.calcn_l.force.Z	foot_l.calcn_l.torque.X	foot_l.calcn_l.torque.Y	foot_l.calcn_l.torque.Z	foot_l.toes_l.force.X	foot_l.toes_l.force.Y	foot_l.toes_l.force.Z	foot_l.toes_l.torque.X	foot_l.toes_l.torque.Y	foot_l.toes_l.torque.Z	HipLimit_r	PotentialEnergy	HipLimit_l	PotentialEnergy	KneeLimit_r	PotentialEnergy	KneeLimit_l	PotentialEnergy	AnkleLimit_r	PotentialEnergy	AnkleLimit_l	PotentialEnergy
      0.06143242	     31.58420713	    118.67635462	    723.18002994	    263.44691963	     39.57304461	     43.58743568	    549.98304442	    328.35242576	   1188.36137452	    337.73849160	     52.04908061	    189.03011167	    226.76275464	   1223.34938159	   5959.55833086	   1648.37952024	    534.95759477	   2586.44475512	    -94.29945966	  -1110.40653769	      0.00000000	    101.51336568	     -8.62085660	    161.85042580	     94.29945966	   1110.40653769	      0.00000000	      0.00000000	      0.00000000	     25.49613192	      0.00000000	      0.00000000	      0.00000000	      0.00000000	      0.00000000	      0.00000000	      0.00000000	      0.00000000	      0.00000000	      0.00000000	      0.00000000	      0.00000000	      0.00000000	      0.00000000	      0.00000000	      0.00000000	      0.00000000	      0.00000000	      0.00000000	      0.00000000	      0.00000000	      0.00000000	      0.00000000	      0.00000000	      0.00000000	      0.00000000	      0.00000000	      0.00000000	      0.00000000	      0.00000000	   -170.73766978	      8.75244208	      0.00000000	      0.00000000	      0.00000000	      0.00000000
      0.06193487	     31.68437228	    117.18269470	    747.00028596	    260.56296322	     39.49987052	     43.02786777	    556.56703824	    329.31155702	   1190.98278485	    341.37339388	     53.17194125	    212.57475146	    224.13862728	   1232.05050512	   6035.97829901	   1652.82599038	    536.58033321	   2584.73484468	    -94.22244370	  -1110.96552149	      0.00000000	    101.56446797	     -8.61381580	    161.97406732	     94.22244370	   1110.96552149	      0.00000000	      0.00000000	      0.00000000	     25.45898390	      0.00000000	      0.00000000	      0.00000000	      0.00000000	      0.00000000	      0.00000000	      0.00000000	      0.00000000	      0.00000000	      0.00000000	      0.00000000	      0.00000000	      0.00000000	      0.00000000	      0.00000000	      0.00000000	      0.00000000	      0.00000000	      0.00000000	      0.00000000	      0.00000000	      0.00000000	      0.00000000	      0.00000000	      0.00000000	      0.00000000	      0.00000000	      0.00000000	      0.00000000	      0.00000000	   -170.13298127	      8.72326889	      0.00000000	      0.00000000	      0.00000000	      0.00000000
      0.06255162	     31.80163154	    116.07543225	    762.33986690	    258.82036768	     39.39496504	     42.17808647	    564.59415706	    330.41478813	   1194.51445578	    345.73579630	     54.35987291	    235.30563121	    222.29839979	   1242.62186705	   6123.22056921	   1659.92127369	    539.69713922	   2580.85811458	    -94.41163783	  -1111.04042829	      0.00000000	    101.57131595	     -8.63111193	    162.03447571	     94.41163783	   1111.04042829	      0.00000000	      0.00000000	      0.00000000	     25.39697567	      0.00000000	      0.00000000	      0.00000000	      0.00000000	      0.00000000	      0.00000000	      0.00000000	      0.00000000	      0.00000000	      0.00000000	      0.00000000	      0.00000000	      0.00000000	      0.00000000	      0.00000000	      0.00000000	      0.00000000	      0.00000000	      0.00000000	      0.00000000	      0.00000000	      0.00000000	      0.00000000	      0.00000000	      0.00000000	      0.00000000	      0.00000000	      0.00000000	      0.00000000	      0.00000000	   -169.74530460	      8.68575556	      0.00000000	      0.00000000	      0.00000000	      0.00000000
      0.06316836	     31.91196289	    115.41546619	    766.43526541	    258.06348572	     39.27309542	     41.17709220	    572.54265690	    331.43320091	   1198.47744059	    349.97462333	     55.38050510	    252.36475053	    221.22569043	   1252.89999057	   6200.98023510	   1668.44670007	    543.80500912	   2575.71239780	    -94.76583252	  -1110.46811379	      0.00000000	    101.51899496	     -8.66349241	    161.99860001	     94.76583252	   1110.46811379	      0.00000000	      0.00000000	      0.00000000	     25.31925967	      0.00000000	      0.00000000	      0.00000000	      0.00000000	      0.00000000	      0.00000000	      0.00000000	      0.00000000	      0.00000000	      0.00000000	      0.00000000	      0.00000000	      0.00000000	      0.00000000	      0.00000000	      0.00000000	      0.00000000	      0.00000000	      0.00000000	      0.00000000	      0.00000000	      0.00000000	      0.00000000	      0.00000000	      0.00000000	      0.00000000	      0.00000000	      0.00000000	      0.00000000	      0.00000000	   -169.72102003	      8.64910056	      0.00000000	      0.00000000	      0.00000000	      0.00000000
